<svg xmlns="http://www.w3.org/2000/svg" width="18" height="9" viewBox="0 0 18 9" fill="none"><path d="M14.0882 8.4765L17.8151 4.74962C17.9335 4.63094 18 4.47013 18 4.30247C18 4.13482 17.9335 3.97401 17.8151 3.85532L14.0882 0.128449C14.0056 0.0460994 13.8937 -9.75846e-05 13.777 1.54776e-07C13.6603 9.78942e-05 13.5485 0.0464825 13.466 0.12897C13.3835 0.211458 13.3371 0.323307 13.337 0.439962C13.3369 0.556617 13.3831 0.668544 13.4655 0.75117L16.5765 3.86214H0.440331C0.323548 3.86214 0.211548 3.90853 0.12897 3.99111C0.0463919 4.07369 0 4.18569 0 4.30247C0 4.41926 0.0463919 4.53126 0.12897 4.61383C0.211548 4.69641 0.323548 4.7428 0.440331 4.7428H16.5765L13.4655 7.85378C13.3831 7.9364 13.3369 8.04833 13.337 8.16498C13.3371 8.28164 13.3835 8.39349 13.466 8.47598C13.5485 8.55846 13.6603 8.60485 13.777 8.60495C13.8937 8.60504 14.0056 8.55885 14.0882 8.4765Z" fill="black"></path></svg>